PathFileType	4	(X/Y/Z)	C:/Users/opensim2020/Desktop/walking_exp_matlab/subject06_cal10_run.trc																																																																																																																																																	
DataRate	CameraRate	NumFrames	NumMarkers	Units	OrigDataRate	OrigDataStartFrame	OrigNumFrames																																																																																																																																													
100	100	4	49	mm	100	169	118																																																																																																																																													
Frame#	Time	LKNE			RTIB			RFRM			RWRA			LTHI			RKNE			RELB			RFHD			LWRA			RUPA			STRN			RASI			CLAV			RSHO			LASI			RTHI			RBHD			LBHD			C7			RWRB			RFIN			RTOE			LSHO			RBAK			LTIB			RANK			LFIN			LANK			RHEE			T10			LHEE			LTOE			LFHD			LPSI			RPSI			LUPA			LELB			LFRM			LWRB			*39			*40			*41			*42			*43			*44			*45			*46			*47			*48		
		X1	Y1	Z1	X2	Y2	Z2	X3	Y3	Z3	X4	Y4	Z4	X5	Y5	Z5	X6	Y6	Z6	X7	Y7	Z7	X8	Y8	Z8	X9	Y9	Z9	X10	Y10	Z10	X11	Y11	Z11	X12	Y12	Z12	X13	Y13	Z13	X14	Y14	Z14	X15	Y15	Z15	X16	Y16	Z16	X17	Y17	Z17	X18	Y18	Z18	X19	Y19	Z19	X20	Y20	Z20	X21	Y21	Z21	X22	Y22	Z22	X23	Y23	Z23	X24	Y24	Z24	X25	Y25	Z25	X26	Y26	Z26	X27	Y27	Z27	X28	Y28	Z28	X29	Y29	Z29	X30	Y30	Z30	X31	Y31	Z31	X32	Y32	Z32	X33	Y33	Z33	X34	Y34	Z34	X35	Y35	Z35	X36	Y36	Z36	X37	Y37	Z37	X38	Y38	Z38	X39	Y39	Z39	X40	Y40	Z40	X41	Y41	Z41	X42	Y42	Z42	X43	Y43	Z43	X44	Y44	Z44	X45	Y45	Z45	X46	Y46	Z46	X47	Y47	Z47	X48	Y48	Z48	X49	Y49	Z49
																																																																																																																																																				
1	0	-1975.901	453.98178	110.42571	-2223.61133	360.9826	335.11255	-2014.0769	1000.10638	520.78979	-1930.76099	907.20776	453.61053	-2022.3042	606.2395	77.13312	-1997.65796	437.51413	352.61984	-2041.74927	1113.28955	520.87354	-1763.53662	1555.573	285.28537	-1893.24463	926.05664	-11.24464	-1998.46851	1215.93701	487.27719	-1865.74182	1099.62061	219.05807	-1973.13269	888.75488	352.68781	-1839.87378	1281.08057	213.59792	-1875.96338	1343.18677	368.45612	-1977.44275	900.68073	136.89833	-2024.02844	560.28412	382.62289	-1901.15869	1527.97119	271.93066	-1890.93298	1529.07617	142.98642	-1925.54358	1388.15381	205.19208	-1971.00745	875.25446	495.21246	-1903.93445	839.11487	491.69983	-2387.46558	184.50981	295.42047	-1886.44043	1326.18152	52.02842	-2047.64685	1264.17334	297.60306	-2086.0564	226.34602	130.72911	-2403.18652	335.64423	293.82593	-1850.46155	849.25195	-42.78619	-2167.14111	82.19856	185.39116	-2440.64233	365.62366	248.89128	-2075.23584	1100.0271	248.34776	-2217.51025	86.37092	226.4713	-2037.94006	32.11764	209.86263	-1750.72351	1561.61206	154.20639	-2120.23877	970.65509	167.70949	-2109.68848	952.19409	334.68423	-1988.64246	1183.57678	-56.18543	-2047.81189	1104.08826	-94.04105	-1982.92456	981.98938	-96.38201	-1930.57532	885.02032	-58.67274	NaN	NaN	NaN	NaN	NaN	NaN	-1848.59473	1618.06653	202.99994	NaN	NaN	NaN	NaN	NaN	NaN	NaN	NaN	NaN	NaN	NaN	NaN	NaN	NaN	NaN	NaN	NaN	NaN	NaN	NaN	NaN
2	0.01	-1959.65503	445.8428	110.19695	-2158.78906	357.72308	338.78986	-1996.3905	997.18152	523.37427	-1914.80249	900.19696	461.30255	-2002.0741	600.79956	76.81812	-1936.71667	440.93106	354.11469	-2021.05591	1110.94995	520.79742	-1736.98389	1552.20203	286.72729	-1844.87976	926.83691	-2.91445	-1976.33069	1213.23535	486.03784	-1834.95251	1094.67786	220.01183	-1943.71472	882.37604	351.66537	-1809.67358	1276.60571	215.13504	-1849.72351	1338.03284	369.70581	-1949.19141	893.92072	136.53249	-1973.74146	560.92224	384.76041	-1874.16797	1522.91296	272.1702	-1862.91895	1524.17212	143.34251	-1896.13391	1383.65405	204.45219	-1957.61194	870.51221	502.13281	-1892.00061	832.88434	503.35037	-2314.90479	178.74324	299.17444	-1853.57043	1320.73145	51.72715	-2020.09766	1258.29858	293.39407	-2083.08887	222.87045	131.16403	-2337.93262	328.1149	297.98181	-1796.72559	853.32819	-31.97374	-2165.86133	82.2319	185.52409	-2377.21997	356.79236	253.50026	-2046.08215	1092.76794	246.6758	-2221.54541	84.9369	222.39993	-2038.78088	31.96713	210.09023	-1723.41956	1558.56909	155.5815	-2091.89844	964.86029	167.21515	-2080.97046	946.33997	333.93375	-1948.04834	1174.60596	-56.46331	-2005.50098	1093.61145	-96.34578	-1932.82324	975.70648	-92.25234	-1877.48376	883.16412	-50.57649	NaN	NaN	NaN	NaN	NaN	NaN	-1822.15857	1613.59473	203.71753	NaN	NaN	NaN	NaN	NaN	NaN	NaN	NaN	NaN	NaN	NaN	NaN	NaN	NaN	NaN	NaN	NaN	NaN	NaN	NaN	NaN
3	0.02	-1946.0343	439.33353	108.95737	-2092.99634	354.97711	342.22913	-1978.12476	998.48901	525.83942	-1897.82129	898.82434	468.28143	-1981.60144	597.04395	75.73299	-1875.90381	448.24091	355.27396	-2001.42346	1112.84705	521.20862	-1710.06042	1549.66003	288.42108	-1795.70996	932.63177	6.18631	-1955.12488	1214.11536	484.77704	-1804.07251	1090.78015	221.15343	-1913.89148	877.43243	351.07224	-1779.52197	1273.37512	216.64323	-1823.09924	1334.10034	370.7446	-1920.58582	888.46411	136.11301	-1923.40112	564.17151	386.85919	-1846.75354	1518.76355	272.6976	-1834.46191	1520.15796	144.0386	-1866.77234	1379.86841	204.09969	-1943.03796	870.26593	507.45337	-1878.47083	832.24463	513.14087	-2241.11206	171.02783	303.01642	-1820.23718	1317.2168	52.28231	-1991.8894	1253.69727	289.61108	-2077.33032	220.9576	129.68048	-2271.44727	318.63678	302.22571	-1743.14392	862.09351	-19.09992	-2165.68579	82.49436	184.64963	-2313.43701	345.04935	257.2092	-2016.02844	1089.18677	244.52531	-2217.75049	87.52431	222.10915	-2037.43579	32.18506	210.4514	-1695.49402	1556.12036	157.2363	-2062.9751	960.41168	167.03262	-2051.28931	942.79431	333.29474	-1908.88782	1169.15076	-56.50338	-1962.11963	1086.10327	-97.50494	-1884.25293	972.49054	-87.39304	-1823.86011	885.81067	-40.72279	NaN	NaN	NaN	NaN	NaN	NaN	-1795.25916	1609.92896	204.67451	NaN	NaN	NaN	NaN	NaN	NaN	NaN	NaN	NaN	NaN	NaN	NaN	NaN	NaN	NaN	NaN	NaN	NaN	NaN	NaN	NaN
4	0.03	-1933.77466	433.54654	107.10651	-2026.68176	353.31732	344.97708	-1960.77271	1003.24768	528.0658	-1879.29333	902.88116	473.84244	-1961.76001	593.45612	75.09317	-1815.68506	458.92242	355.96942	-1982.94653	1118.21216	522.13318	-1682.40906	1548.24121	290.37225	-1746.51941	943.48926	16.07053	-1934.04443	1217.36304	483.39706	-1773.31799	1088.37646	222.26671	-1883.91565	874.42957	351.19919	-1749.25928	1271.38599	218.31854	-1796.06677	1331.8988	371.52847	-1889.88428	885.0174	135.63763	-1873.2655	570.27057	388.33276	-1818.70056	1515.89209	273.6358	-1805.56482	1517.39246	145.12053	-1837.44287	1377.11926	204.21243	-1926.31152	874.72949	511.22205	-1862.64111	836.6922	520.15924	-2165.84985	161.39673	306.35056	-1786.42017	1315.74609	53.72047	-1963.11157	1250.20398	286.1683	-2071.06714	219.34036	127.9678	-2203.49243	307.24295	305.96167	-1689.323	875.9306	-4.30745	-2163.20483	84.58188	182.2083	-2247.41187	331.45474	261.54022	-1985.48633	1087.12476	241.98781	-2219.56323	88.62775	217.2471	-2039.09058	31.87885	209.62195	-1667.24097	1554.80762	159.03886	-2032.91418	957.5918	166.80063	-2020.23853	940.43262	332.64169	-1870.04578	1165.95605	-56.84867	-1918.03748	1080.81189	-98.16713	-1835.19714	973.66656	-82.70812	-1768.20959	893.94629	-31.89793	NaN	NaN	NaN	NaN	NaN	NaN	-1767.6908	1607.48059	205.87875	NaN	NaN	NaN	NaN	NaN	NaN	NaN	NaN	NaN	NaN	NaN	NaN	NaN	NaN	NaN	NaN	NaN	NaN	NaN	NaN	NaN
